<svg width="134" height="26" viewBox="0 0 134 26" fill="none" xmlns="http://www.w3.org/2000/svg">
<g opacity="0.4" clip-path="url(#clip0_1_1385)">
<mask id="mask0_1_1385" style="mask-type:luminance" maskUnits="userSpaceOnUse" x="0" y="0" width="134" height="26">
<path d="M134 0.0273438H0V25.9611H134V0.0273438Z" fill="white"/>
</mask>
<g mask="url(#mask0_1_1385)">
<path fill-rule="evenodd" clip-rule="evenodd" d="M77.1061 10.6196C75.6608 10.7689 73.8342 10.7689 72.1903 10.7689C71.8972 10.7952 71.6019 10.7606 71.3232 10.6673C71.0444 10.5741 70.7885 10.4243 70.5717 10.2275C70.3548 10.0307 70.1819 9.79132 70.0641 9.52456C69.9462 9.2578 69.8859 8.96963 69.8871 8.67843V2.29721C69.8812 1.99671 69.9408 1.69849 70.0619 1.42286C70.1831 1.14725 70.3628 0.900705 70.5889 0.70006C70.8151 0.499415 71.0823 0.349381 71.3723 0.260188C71.6623 0.170995 71.9684 0.144741 72.2696 0.183214C73.9099 0.153822 75.5506 0.206279 77.1856 0.340388L77.0347 2.05359H72.9288C72.4205 2.05359 72.2061 2.28935 72.2061 2.83945V4.41119H76.4311V6.10081H72.2061V8.12836C72.2061 8.68632 72.4205 8.91425 72.9288 8.91425H77.0347L77.1061 10.6196Z" fill="white"/>
<path fill-rule="evenodd" clip-rule="evenodd" d="M80.5757 6.01153C79.8986 5.84369 79.3046 5.44161 78.9011 4.878C78.4976 4.31441 78.3113 3.62652 78.3758 2.93878C78.3758 0.534018 79.5035 0.0310608 82.2354 0.0310608C83.4135 0.0118722 84.5888 0.149318 85.7299 0.439713L85.571 2.01145C84.6815 2.01145 83.3711 1.9643 82.2514 1.9643C81.1316 1.9643 80.7186 2.01932 80.7186 2.92307C80.7186 3.65393 81.0204 3.85039 81.8225 4.10973L83.8397 4.79343C84.5303 4.95071 85.1389 5.35218 85.5514 5.92238C85.9638 6.49258 86.1515 7.19222 86.0792 7.88976C86.0792 10.2474 85.031 10.9153 82.1085 10.9153C80.8824 10.9103 79.6605 10.776 78.4632 10.5146L78.622 8.85638C80.5915 8.85638 81.4572 8.9271 82.1323 8.9271C83.3553 8.9271 83.7206 8.76209 83.7206 7.91334C83.7206 7.0646 83.4267 6.98601 82.7199 6.75025L80.5757 6.01153Z" fill="white"/>
<path fill-rule="evenodd" clip-rule="evenodd" d="M87.7402 0.230503C89.0794 0.115771 90.4237 0.0711763 91.7672 0.0969045C94.7056 0.0969045 95.6427 0.882773 95.6427 3.51544C95.6427 6.14811 94.7056 6.95756 92.0764 6.95756C91.4073 6.95709 90.739 6.91509 90.0752 6.83181V10.7612H87.7402V0.230503ZM91.7112 5.17363C92.9111 5.17363 93.2999 4.82785 93.2999 3.51544C93.2999 2.20304 92.9268 1.87297 91.7112 1.87297H90.0673V5.17363H91.7112Z" fill="white"/>
<path fill-rule="evenodd" clip-rule="evenodd" d="M105.911 5.47733C105.911 9.68962 104.704 10.9234 101.361 10.9234C98.0173 10.9234 96.8262 9.68962 96.8262 5.47733C96.8262 1.26506 98.0015 0.03125 101.361 0.03125C104.72 0.03125 105.911 1.26506 105.911 5.47733ZM99.2802 5.47733C99.2802 8.25932 99.7567 9.05305 101.361 9.05305C102.965 9.05305 103.433 8.26718 103.433 5.47733C103.433 2.68749 102.957 1.90162 101.361 1.90162C99.7645 1.90162 99.2723 2.69535 99.2723 5.47733" fill="white"/>
<path fill-rule="evenodd" clip-rule="evenodd" d="M113.566 10.7298L112.772 7.51558C112.756 7.38382 112.714 7.25643 112.648 7.14077C112.583 7.02509 112.494 6.92342 112.389 6.84162C112.283 6.75981 112.162 6.69947 112.033 6.66407C111.904 6.62869 111.769 6.61894 111.636 6.6354H109.992V10.7456H107.689V0.230547C109.033 0.115716 110.383 0.0711208 111.731 0.0969498C114.495 0.0969498 115.646 0.796376 115.646 3.19329C115.646 4.67072 115.122 5.61377 113.621 5.80238V5.87311C114.001 5.95822 114.347 6.1531 114.614 6.43299C114.881 6.71287 115.058 7.06509 115.123 7.44485L116.044 10.7141L113.566 10.7298ZM111.676 4.84361C112.899 4.84361 113.264 4.50569 113.264 3.35046C113.264 2.19523 112.891 1.87302 111.676 1.87302H109.984V4.84361H111.676Z" fill="white"/>
<path fill-rule="evenodd" clip-rule="evenodd" d="M122.191 2.11656V10.7297H119.84V2.11656H116.68V0.230469H125.36V2.11656H122.191Z" fill="white"/>
<path fill-rule="evenodd" clip-rule="evenodd" d="M128.496 6.01153C127.814 5.84995 127.213 5.45024 126.805 4.88579C126.397 4.32134 126.207 3.63003 126.272 2.93877C126.272 0.534011 127.392 0.031054 130.132 0.031054C131.307 0.0119044 132.48 0.149356 133.619 0.439707L133.467 2.01145C132.57 2.01145 131.268 1.96429 130.14 1.96429C129.012 1.96429 128.654 2.03502 128.654 2.93877C128.654 3.66963 128.965 3.86611 129.759 4.12544L131.776 4.80914C132.461 4.96938 133.063 5.3699 133.472 5.9364C133.881 6.50289 134.069 7.19693 134 7.88976C134 10.2474 132.951 10.9153 130.029 10.9153C128.805 10.9105 127.586 10.7761 126.391 10.5146L126.526 8.84849C128.488 8.84849 129.353 8.91921 130.029 8.91921C131.26 8.91921 131.617 8.7542 131.617 7.90547C131.617 7.05674 131.323 6.97815 130.616 6.74239L128.496 6.01153Z" fill="white"/>
<path d="M72.2782 15.1699H69.9434V25.6613H72.2782V15.1699Z" fill="white"/>
<path fill-rule="evenodd" clip-rule="evenodd" d="M83.3881 24.8284C83.4037 24.9377 83.3945 25.0491 83.361 25.1545C83.3275 25.2598 83.2706 25.3563 83.1944 25.437C83.1182 25.5176 83.0247 25.5804 82.9208 25.6206C82.8169 25.6608 82.7052 25.6774 82.5939 25.6693H81.0849C80.5925 25.6693 80.3781 25.4413 80.1478 24.9777L77.3682 19.3823C77.1021 18.8614 76.8868 18.3167 76.7249 17.7556H76.5502C76.6268 18.3102 76.664 18.8696 76.6614 19.4295V25.6693H74.4298V16.0109C74.4215 15.8984 74.4378 15.7855 74.4776 15.6797C74.5173 15.5739 74.5797 15.4779 74.6604 15.3982C74.7409 15.3183 74.838 15.2567 74.9448 15.2174C75.0517 15.178 75.1659 15.1618 75.2796 15.1701H76.7091C77.2015 15.1701 77.4159 15.398 77.6462 15.8538L80.3305 21.2527C80.5687 21.7085 80.8547 22.3529 81.1247 22.9423H81.2835C81.2358 22.3529 81.1882 21.7714 81.1882 21.1741V15.1701H83.3881V24.8284Z" fill="white"/>
<path fill-rule="evenodd" clip-rule="evenodd" d="M87.31 20.953C86.633 20.7851 86.0389 20.3831 85.6354 19.8194C85.2319 19.2558 85.0456 18.5679 85.1102 17.8802C85.1102 15.4754 86.2379 14.9725 88.9699 14.9725C90.1453 14.9533 91.318 15.0908 92.4566 15.3811L92.305 16.9529C91.4161 16.9529 90.1059 16.9057 88.9857 16.9057C87.8655 16.9057 87.445 16.9686 87.445 17.8644C87.445 18.5875 87.7552 18.7918 88.5565 19.0512L90.5665 19.7349C91.2567 19.8904 91.8662 20.29 92.2796 20.8587C92.6939 21.4273 92.8831 22.1259 92.8139 22.8233C92.8139 25.1809 91.7655 25.849 88.8429 25.849C87.6194 25.8437 86.4 25.7093 85.2055 25.4481L85.3404 23.782C87.31 23.8214 88.1677 23.8529 88.8429 23.8529C90.0735 23.8529 90.4308 23.6878 90.4308 22.8311C90.4308 21.9746 90.1374 21.9039 89.4306 21.676L87.31 20.953Z" fill="white"/>
<path d="M96.8095 15.1699H94.4746V25.6613H96.8095V15.1699Z" fill="white"/>
<path fill-rule="evenodd" clip-rule="evenodd" d="M98.9531 15.1688C100.168 15.0902 101.462 15.0352 103.075 15.0352C106.411 15.0352 107.594 16.2611 107.594 20.4185C107.594 24.5757 106.411 25.8017 103.075 25.8017C101.487 25.8017 100.168 25.7388 98.9531 25.6602V15.1688ZM101.335 23.9627H103.115C104.703 23.9627 105.171 23.1768 105.171 20.4027C105.171 17.6286 104.703 16.827 103.115 16.827H101.335V23.9627Z" fill="white"/>
<path fill-rule="evenodd" clip-rule="evenodd" d="M116.568 25.5574C115.122 25.7067 113.295 25.7067 111.652 25.7067C111.356 25.739 111.055 25.7087 110.771 25.6176C110.488 25.5265 110.227 25.3767 110.007 25.1783C109.786 24.98 109.61 24.7374 109.491 24.4667C109.373 24.1961 109.313 23.9035 109.317 23.6085V17.235C109.312 16.9389 109.371 16.6452 109.489 16.3734C109.607 16.1014 109.783 15.8573 110.003 15.6575C110.224 15.4576 110.485 15.3065 110.77 15.214C111.053 15.1215 111.355 15.0898 111.652 15.121C113.292 15.0916 114.933 15.1441 116.568 15.2782L116.464 16.9914H112.391C111.882 16.9914 111.668 17.2193 111.668 17.7773V19.349H115.893V21.0229H111.668V23.0504C111.668 23.6085 111.882 23.8363 112.391 23.8363H116.464L116.568 25.5574Z" fill="white"/>
<path fill-rule="evenodd" clip-rule="evenodd" d="M124.144 25.6692L123.35 22.455C123.334 22.3233 123.292 22.1959 123.226 22.0802C123.161 21.9645 123.073 21.8628 122.967 21.781C122.862 21.6992 122.741 21.6388 122.612 21.6035C122.483 21.5681 122.347 21.5583 122.214 21.5748H120.57V25.6849H118.268V15.17C119.612 15.0553 120.961 15.0107 122.309 15.0363C125.074 15.0363 126.225 15.7358 126.225 18.1405C126.225 19.6102 125.708 20.5532 124.199 20.7418V20.8125C124.58 20.8963 124.928 21.0905 125.197 21.3705C125.466 21.6505 125.644 22.0035 125.708 22.3843L126.63 25.6613L124.144 25.6692ZM122.254 19.7831C123.485 19.7831 123.842 19.4451 123.842 18.2899C123.842 17.1346 123.477 16.8125 122.254 16.8125H120.562V19.7673L122.254 19.7831Z" fill="white"/>
<path fill-rule="evenodd" clip-rule="evenodd" d="M62.0167 0.0273438C62.2091 0.0294133 62.3928 0.106499 62.5281 0.241864C62.6635 0.37723 62.7394 0.559947 62.7394 0.750345V25.2459C62.7394 25.4356 62.6632 25.6175 62.5277 25.7516C62.3921 25.8857 62.2083 25.9611 62.0167 25.9611H56.6163C56.4247 25.9611 56.2408 25.8857 56.1053 25.7516C55.9698 25.6175 55.8937 25.4356 55.8937 25.2459V0.750345C55.8937 0.559947 55.9695 0.37723 56.1048 0.241864C56.2401 0.106499 56.424 0.0294133 56.6163 0.0273438H62.0167ZM52.3675 0.0273438C52.5592 0.0273438 52.743 0.102689 52.8786 0.236804C53.0141 0.37092 53.0903 0.552818 53.0903 0.742487V6.18071C53.0903 6.37038 53.0141 6.55228 52.8786 6.6864C52.743 6.82051 52.5592 6.89585 52.3675 6.89585H35.4836C35.1403 6.92181 34.8196 7.07507 34.5856 7.32497C34.3517 7.57486 34.2217 7.90296 34.2217 8.24362C34.2217 8.58428 34.3517 8.91239 34.5856 9.16225C34.8196 9.41219 35.1403 9.56542 35.4836 9.59142H46.9355C47.7642 9.59653 48.5838 9.76328 49.3474 10.0821C50.1109 10.401 50.8035 10.8656 51.3855 11.4496C51.9674 12.0334 52.4274 12.7251 52.739 13.4851C53.0505 14.245 53.2077 15.0583 53.2014 15.8784V19.6741C53.2077 20.4942 53.0505 21.3075 52.739 22.0674C52.4274 22.8273 51.9674 23.519 51.3855 24.103C50.8035 24.6868 50.1109 25.1516 49.3474 25.4703C48.5838 25.7892 47.7642 25.9559 46.9355 25.9611H33.8635C33.7408 25.9615 33.6201 25.9305 33.513 25.8713C33.4059 25.8121 33.316 25.7267 33.2519 25.6232C33.1914 25.5163 33.1597 25.396 33.1597 25.2734C33.1597 25.1509 33.1914 25.0306 33.2519 24.9237L35.96 19.5169C36.0169 19.3977 36.1068 19.2967 36.2193 19.2258C36.3316 19.1548 36.462 19.1169 36.5954 19.1162H45.0136C45.3737 19.1162 45.7191 18.9746 45.9738 18.7225C46.2285 18.4705 46.3716 18.1287 46.3716 17.7723C46.3716 17.4159 46.2285 17.0741 45.9738 16.8221C45.7191 16.5701 45.3737 16.4285 45.0136 16.4285H32.4498C31.0759 16.4201 29.7613 15.8726 28.795 14.906C27.8286 13.9394 27.2894 12.6328 27.2957 11.2732V8.18468C27.2952 7.6721 27.4149 7.16638 27.6451 6.70725L30.7583 0.420279C30.8184 0.302404 30.9103 0.203298 31.0238 0.133943C31.1373 0.0645886 31.2681 0.0276928 31.4016 0.0273438H52.3675ZM10.7055 9.59142H23.3328C23.5245 9.59142 23.7083 9.66673 23.8438 9.80089C23.9794 9.93497 24.0555 10.1169 24.0555 10.3065V15.7448C24.0555 15.9345 23.9794 16.1163 23.8438 16.2505C23.7083 16.3845 23.5245 16.4599 23.3328 16.4599H10.7055C10.5139 16.4599 10.3301 16.3845 10.1945 16.2505C10.059 16.1163 9.98289 15.9345 9.98289 15.7448V10.3065C9.98289 10.1169 10.059 9.93497 10.1945 9.80089C10.3301 9.66673 10.5139 9.59142 10.7055 9.59142ZM8.32305 19.1162H31.5921C31.7157 19.1158 31.8372 19.1476 31.9445 19.2083C32.0518 19.269 32.1412 19.3564 32.2036 19.462C32.2621 19.5681 32.2926 19.6869 32.2926 19.8077C32.2926 19.9285 32.2621 20.0474 32.2036 20.1535L29.5273 25.5603C29.469 25.6802 29.3777 25.7814 29.264 25.8523C29.1502 25.9232 29.0185 25.9609 28.884 25.9611H6.2741C4.60289 25.9404 3.00723 25.2689 1.83286 24.0921C0.658505 22.9153 5.00752e-05 21.328 0.000180654 19.6741V6.31431C-0.00609751 5.49357 0.151318 4.67966 0.463411 3.91921C0.775503 3.15876 1.23614 2.46671 1.81894 1.8827C2.40174 1.29869 3.09525 0.834197 3.85973 0.515825C4.62422 0.197451 5.44467 0.031455 6.2741 0.0273438H26.4142C26.5362 0.032716 26.6547 0.0696466 26.7578 0.134454C26.8609 0.199262 26.9451 0.289683 27.0018 0.396703C27.0623 0.50353 27.0941 0.623947 27.0941 0.746415C27.0941 0.868888 27.0623 0.989303 27.0018 1.09613L24.3017 6.50292C24.2416 6.6208 24.1496 6.7199 24.0361 6.78925C23.9225 6.85861 23.7919 6.89551 23.6584 6.89585H8.34687C7.94733 6.9 7.56558 7.05996 7.28454 7.34101C7.0035 7.62206 6.84588 8.00148 6.8459 8.39687V17.6151C6.84486 17.8112 6.88285 18.0056 6.95771 18.1871C7.03258 18.3687 7.14285 18.5339 7.28223 18.6732C7.42161 18.8127 7.58736 18.9235 7.77004 18.9995C7.95271 19.0754 8.14872 19.1151 8.34687 19.1162" fill="#9F367B"/>
</g>
<mask id="mask1_1_1385" style="mask-type:luminance" maskUnits="userSpaceOnUse" x="0" y="0" width="63" height="26">
<path d="M10.7055 9.58983C10.5139 9.58983 10.3301 9.66523 10.1945 9.79931C10.059 9.93338 9.98282 10.1153 9.98282 10.305V15.7432C9.98282 15.9329 10.059 16.1148 10.1945 16.2489C10.3301 16.383 10.5139 16.4583 10.7055 16.4583H23.3328C23.5245 16.4583 23.7082 16.383 23.8438 16.2489C23.9793 16.1148 24.0555 15.9329 24.0555 15.7432V10.305C24.0555 10.1153 23.9793 9.93338 23.8438 9.79931C23.7082 9.66523 23.5245 9.58983 23.3328 9.58983H10.7055ZM31.4015 0.0258216C31.2679 0.0252677 31.1368 0.0617908 31.0231 0.131245C30.9094 0.200701 30.8177 0.300306 30.7583 0.418756L27.6451 6.70571C27.4149 7.16485 27.2952 7.67056 27.2957 8.18314V11.2716C27.2925 11.9455 27.4236 12.6135 27.6813 13.2373C27.939 13.861 28.3184 14.4285 28.7978 14.9072C29.2771 15.3859 29.847 15.7666 30.4751 16.0272C31.103 16.288 31.7768 16.4238 32.4578 16.427H45.0136C45.3737 16.427 45.7191 16.5685 45.9738 16.8205C46.2285 17.0725 46.3715 17.4143 46.3715 17.7707C46.3715 18.1272 46.2285 18.469 45.9738 18.721C45.7191 18.973 45.3737 19.1146 45.0136 19.1146H36.5318C36.3985 19.1153 36.2681 19.1533 36.1557 19.2242C36.0433 19.2952 35.9534 19.3961 35.8965 19.5154L33.1884 24.9222C33.1279 25.0289 33.0961 25.1494 33.0961 25.2719C33.0961 25.3943 33.1279 25.5147 33.1884 25.6216C33.2524 25.7251 33.3424 25.8106 33.4495 25.8698C33.5565 25.9289 33.6772 25.9598 33.7999 25.9595H46.9354C47.7649 25.9554 48.5853 25.7894 49.3498 25.471C50.1142 25.1526 50.8078 24.6882 51.3906 24.1041C51.9734 23.5202 52.434 22.8281 52.7461 22.0676C53.0582 21.3072 53.2156 20.4933 53.2094 19.6725V15.8532C53.2156 15.0332 53.0585 14.2199 52.7469 13.4599C52.4352 12.7 51.9753 12.0083 51.3934 11.4244C50.8114 10.8405 50.1189 10.3758 49.3553 10.057C48.5917 9.73821 47.7721 9.57137 46.9434 9.56626H35.4836C35.1403 9.54035 34.8196 9.38703 34.5856 9.13718C34.3517 8.88723 34.2216 8.55917 34.2216 8.21851C34.2216 7.87784 34.3517 7.54974 34.5856 7.29985C34.8196 7.04995 35.1403 6.8967 35.4836 6.87074H52.3675C52.5592 6.87074 52.743 6.7954 52.8786 6.66128C53.0141 6.52716 53.0902 6.34527 53.0902 6.1556V0.811691C53.1002 0.712008 53.089 0.611354 53.0572 0.516253C53.0254 0.421152 52.9737 0.333724 52.9056 0.259635C52.8374 0.185545 52.7543 0.126447 52.6616 0.0861683C52.569 0.04589 52.4688 0.0253304 52.3675 0.0258216H31.4015ZM6.2741 0.0258216C5.44467 0.029933 4.62422 0.195929 3.85973 0.514302C3.09524 0.832673 2.40173 1.29717 1.81894 1.88117C1.23614 2.46518 0.775503 3.15723 0.463411 3.91768C0.151318 4.67812 -0.0060975 5.49204 0.000180654 6.31278V19.6725C5.0075e-05 21.3265 0.658505 22.9138 1.83287 24.0905C3.00722 25.2674 4.60288 25.9389 6.2741 25.9595H28.9157C29.0503 25.9593 29.1819 25.9216 29.2958 25.8507C29.4095 25.7798 29.5008 25.6786 29.559 25.5587L32.2354 20.152C32.2938 20.0458 32.3244 19.927 32.3244 19.8062C32.3244 19.6854 32.2938 19.5664 32.2354 19.4604C32.1729 19.3549 32.0836 19.2674 31.9763 19.2067C31.869 19.146 31.7474 19.1143 31.6239 19.1146H8.34687C8.14872 19.1135 7.95271 19.0739 7.77003 18.9979C7.58737 18.9219 7.42161 18.8111 7.28222 18.6717C7.14285 18.5323 7.03258 18.3672 6.95772 18.1856C6.88284 18.004 6.84485 17.8096 6.8459 17.6136V8.39533C6.84587 7.99995 7.0035 7.62052 7.28454 7.33947C7.56558 7.05843 7.94733 6.89846 8.34687 6.89432H23.714C23.8474 6.89397 23.9782 6.85708 24.0917 6.78772C24.2053 6.71837 24.2971 6.61925 24.3573 6.50138L27.0574 1.09461C27.118 0.98778 27.1498 0.867357 27.1498 0.744892C27.1498 0.622423 27.118 0.502007 27.0574 0.39518C26.9962 0.279938 26.9034 0.184136 26.7895 0.118795C26.6758 0.0534532 26.5456 0.0212265 26.4142 0.0258216H6.2741ZM56.6163 0.0258216C56.4239 0.0278912 56.2401 0.104977 56.1048 0.240342C55.9695 0.375707 55.8936 0.558423 55.8937 0.748821V25.2444C55.8937 25.434 55.9698 25.6159 56.1053 25.75C56.2408 25.8842 56.4247 25.9595 56.6163 25.9595H62.0167C62.2083 25.9595 62.3921 25.8842 62.5277 25.75C62.6632 25.6159 62.7394 25.434 62.7394 25.2444V0.748821C62.7394 0.558423 62.6634 0.375707 62.5281 0.240342C62.3928 0.104977 62.2091 0.0278912 62.0167 0.0258216H56.6163Z" fill="white"/>
</mask>
<g mask="url(#mask1_1_1385)">
<path d="M62.9855 0.0292969H0V25.7666H62.9855V0.0292969Z" fill="white"/>
</g>
</g>
<defs>
<clipPath id="clip0_1_1385">
<rect width="134" height="26" fill="white"/>
</clipPath>
</defs>
</svg>
